<svg xmlns="http://www.w3.org/2000/svg" width="1100" height="420" viewBox="0 0 1100 420" role="img" aria-label="Theoretical named state storage for dense and tiled attention">
<title>Theoretical named state storage for dense and tiled attention</title>
<rect width="1100" height="420" rx="20" fill="#091220"/>
<text x="35" y="42" font-family="Inter,DejaVu Sans,Arial,sans-serif" font-size="25" fill="#e7f0fa" font-weight="700" text-anchor="start" >Keep tiles. Skip the full attention matrix.</text>
<text x="35" y="71" font-family="Inter,DejaVu Sans,Arial,sans-serif" font-size="14" fill="#91a6be" font-weight="400" text-anchor="start" >Named array storage, float64 · B=1 · H=4 · query tile=32 · key tile=64</text>
<line x1="110" y1="328" x2="1050" y2="328" stroke="#22344a" stroke-width="1"/>
<text x="98" y="332" font-family="Inter,DejaVu Sans,Arial,sans-serif" font-size="12" fill="#91a6be" font-weight="400" text-anchor="end" >0 MiB</text>
<line x1="110" y1="278.5" x2="1050" y2="278.5" stroke="#22344a" stroke-width="1"/>
<text x="98" y="282.5" font-family="Inter,DejaVu Sans,Arial,sans-serif" font-size="12" fill="#91a6be" font-weight="400" text-anchor="end" >16 MiB</text>
<line x1="110" y1="229.0" x2="1050" y2="229.0" stroke="#22344a" stroke-width="1"/>
<text x="98" y="233.0" font-family="Inter,DejaVu Sans,Arial,sans-serif" font-size="12" fill="#91a6be" font-weight="400" text-anchor="end" >32 MiB</text>
<line x1="110" y1="179.5" x2="1050" y2="179.5" stroke="#22344a" stroke-width="1"/>
<text x="98" y="183.5" font-family="Inter,DejaVu Sans,Arial,sans-serif" font-size="12" fill="#91a6be" font-weight="400" text-anchor="end" >48 MiB</text>
<line x1="110" y1="130" x2="1050" y2="130" stroke="#22344a" stroke-width="1"/>
<text x="98" y="134" font-family="Inter,DejaVu Sans,Arial,sans-serif" font-size="12" fill="#91a6be" font-weight="400" text-anchor="end" >64 MiB</text>
<rect x="173.0" y="326" width="31" height="2" rx="3" fill="#ffc46b" />
<rect x="211.0" y="326" width="31" height="2" rx="3" fill="#52e5c3" />
<text x="204.0" y="353" font-family="Inter,DejaVu Sans,Arial,sans-serif" font-size="12" fill="#91a6be" font-weight="400" text-anchor="middle" >64</text>
<rect x="361.0" y="324.90625" width="31" height="3.09375" rx="3" fill="#ffc46b" />
<rect x="399.0" y="326" width="31" height="2" rx="3" fill="#52e5c3" />
<text x="392.0" y="353" font-family="Inter,DejaVu Sans,Arial,sans-serif" font-size="12" fill="#91a6be" font-weight="400" text-anchor="middle" >128</text>
<rect x="549.0" y="315.625" width="31" height="12.375" rx="3" fill="#ffc46b" />
<rect x="587.0" y="326" width="31" height="2" rx="3" fill="#52e5c3" />
<text x="580.0" y="353" font-family="Inter,DejaVu Sans,Arial,sans-serif" font-size="12" fill="#91a6be" font-weight="400" text-anchor="middle" >256</text>
<rect x="737.0" y="278.5" width="31" height="49.5" rx="3" fill="#ffc46b" />
<rect x="775.0" y="326" width="31" height="2" rx="3" fill="#52e5c3" />
<text x="768.0" y="353" font-family="Inter,DejaVu Sans,Arial,sans-serif" font-size="12" fill="#91a6be" font-weight="400" text-anchor="middle" >512</text>
<rect x="925.0" y="130.0" width="31" height="198.0" rx="3" fill="#ffc46b" />
<rect x="963.0" y="326" width="31" height="2" rx="3" fill="#52e5c3" />
<text x="956.0" y="353" font-family="Inter,DejaVu Sans,Arial,sans-serif" font-size="12" fill="#91a6be" font-weight="400" text-anchor="middle" >1024</text>
<rect x="635" y="94" width="12" height="12" rx="2" fill="#ffc46b" />
<text x="653" y="105" font-family="Inter,DejaVu Sans,Arial,sans-serif" font-size="12" fill="#91a6be" font-weight="400" text-anchor="start" >Dense scores + probabilities</text>
<rect x="895" y="94" width="12" height="12" rx="2" fill="#52e5c3" />
<text x="913" y="105" font-family="Inter,DejaVu Sans,Arial,sans-serif" font-size="12" fill="#91a6be" font-weight="400" text-anchor="start" >Tiled scores + exp</text>
<text x="35" y="389" font-family="Inter,DejaVu Sans,Arial,sans-serif" font-size="13" fill="#91a6be" font-weight="400" text-anchor="start" >Excludes inputs, outputs, running state, masks, temporaries, and BLAS workspace. Not peak RAM.</text>
</svg>
